<svg width="244" height="48" viewBox="0 0 244 48" fill="none" xmlns="http://www.w3.org/2000/svg">
  <rect x="0.5" y="0.5" width="47" height="47" rx="12" fill="#FF5A1F"/>
  <rect x="0.5" y="0.5" width="47" height="47" rx="12" stroke="#FF7A49"/>
  <path d="M15 20.5C15 15.8056 18.8056 12 23.5 12C28.1944 12 32 15.8056 32 20.5V25.5C32 30.1944 28.1944 34 23.5 34C18.8056 34 15 30.1944 15 25.5V20.5Z" fill="#0A0A12"/>
  <rect x="18" y="8" width="4" height="9" rx="2" fill="#0A0A12"/>
  <rect x="25" y="8" width="4" height="9" rx="2" fill="#0A0A12"/>
  <circle cx="20" cy="22" r="1.8" fill="#FF5A1F"/>
  <circle cx="27" cy="22" r="1.8" fill="#FF5A1F"/>
  <path d="M20 28.5C21.2 29.6 22.2 30 23.5 30C24.8 30 25.8 29.6 27 28.5" stroke="#FF5A1F" stroke-width="1.8" stroke-linecap="round"/>
  <path d="M63.5 32C60.8333 32 58.5556 31.4222 56.6667 30.2667C54.7778 29.0889 53.3333 27.4444 52.3333 25.3333C51.3333 23.2222 50.8333 20.7778 50.8333 18C50.8333 15.2222 51.3333 12.7778 52.3333 10.6667C53.3333 8.55556 54.7778 6.92222 56.6667 5.76667C58.5556 4.58889 60.8333 4 63.5 4C65.7222 4 67.6889 4.4 69.4 5.2C71.1111 6 72.4889 7.11111 73.5333 8.53333L70.3333 11.7333C69.6 10.7556 68.6778 9.98889 67.5667 9.43333C66.4556 8.85556 65.2 8.56667 63.8 8.56667C62 8.56667 60.4556 8.97778 59.1667 9.8C57.9 10.6222 56.9222 11.7444 56.2333 13.1667C55.5667 14.5667 55.2333 16.1778 55.2333 18C55.2333 19.8222 55.5667 21.4444 56.2333 22.8667C56.9222 24.2667 57.9 25.3778 59.1667 26.2C60.4556 27.0222 62 27.4333 63.8 27.4333C65.2 27.4333 66.4556 27.1556 67.5667 26.6C68.6778 26.0222 69.6 25.2444 70.3333 24.2667L73.5333 27.4667C72.4889 28.8889 71.1111 30.0111 69.4 30.8333C67.6889 31.6333 65.7222 32.0222 63.5 32Z" fill="#F4F5FF"/>
  <path d="M78.0547 31.4668V10.2002H82.2547V31.4668H78.0547ZM89.188 32.0002C87.388 32.0002 85.788 31.6224 84.388 30.8668C83.0102 30.1113 81.9325 29.0557 81.1547 27.7002C80.3991 26.3224 80.0213 24.7224 80.0213 22.9002C80.0213 21.078 80.3991 19.4891 81.1547 18.1335C81.9325 16.7557 83.0102 15.6891 84.388 14.9335C85.788 14.178 87.388 13.8002 89.188 13.8002C90.988 13.8002 92.5769 14.178 93.9547 14.9335C95.3547 15.6891 96.4325 16.7557 97.188 18.1335C97.9658 19.4891 98.3547 21.078 98.3547 22.9002C98.3547 24.7224 97.9658 26.3224 97.188 27.7002C96.4325 29.0557 95.3547 30.1113 93.9547 30.8668C92.5769 31.6224 90.988 32.0002 89.188 32.0002ZM89.188 28.1668C90.188 28.1668 91.0769 27.9335 91.8547 27.4668C92.6547 27.0002 93.2769 26.3446 93.7213 25.5002C94.188 24.6335 94.4213 23.6002 94.4213 22.4002C94.4213 21.2002 94.188 20.178 93.7213 19.3335C93.2769 18.4668 92.6547 17.8002 91.8547 17.3335C91.0769 16.8668 90.188 16.6335 89.188 16.6335C88.188 16.6335 87.288 16.8668 86.488 17.3335C85.7102 17.8002 85.088 18.4668 84.6213 19.3335C84.1769 20.178 83.9547 21.2002 83.9547 22.4002C83.9547 23.6002 84.1769 24.6335 84.6213 25.5002C85.088 26.3446 85.7102 27.0002 86.488 27.4668C87.288 27.9335 88.188 28.1668 89.188 28.1668Z" fill="#F4F5FF"/>
  <path d="M103.211 31.4668V14.3335H107.378V17.3668L106.945 16.9335C107.39 15.8446 108.101 15.0113 109.078 14.4335C110.078 13.8557 111.278 13.5668 112.678 13.5668C114.145 13.5668 115.445 13.9002 116.578 14.5668C117.712 15.2113 118.578 16.1446 119.178 17.3668C119.778 18.5668 120.078 20.0002 120.078 21.6668V31.4668H115.878V22.3002C115.878 21.2557 115.712 20.3891 115.378 19.7002C115.045 18.9891 114.556 18.4557 113.911 18.1002C113.267 17.7446 112.478 17.5668 111.545 17.5668C110.634 17.5668 109.845 17.7446 109.178 18.1002C108.534 18.4557 108.034 18.9891 107.678 19.7002C107.345 20.4113 107.178 21.3002 107.178 22.3668V31.4668H103.211Z" fill="#F4F5FF"/>
  <path d="M130.041 31.9668C128.708 31.9668 127.519 31.7002 126.474 31.1668C125.43 30.6335 124.608 29.9002 124.008 28.9668C123.43 28.0113 123.141 26.9113 123.141 25.6668C123.141 24.4002 123.43 23.3002 124.008 22.3668C124.608 21.4335 125.43 20.7113 126.474 20.2002C127.541 19.6668 128.752 19.4002 130.108 19.4002C131.086 19.4002 131.997 19.5668 132.841 19.9002C133.686 20.2335 134.386 20.7224 134.941 21.3668C135.497 21.9891 135.852 22.7446 136.008 23.6335V27.5335C135.874 28.4002 135.53 29.1668 134.974 29.8335C134.419 30.5002 133.708 31.0224 132.841 31.4002C131.997 31.778 131.063 31.9668 130.041 31.9668ZM130.874 28.4668C131.986 28.4668 132.886 28.1335 133.574 27.4668C134.286 26.7779 134.641 25.8779 134.641 24.7668C134.641 24.0113 134.474 23.3557 134.141 22.8002C133.808 22.2224 133.341 21.778 132.741 21.4668C132.141 21.1335 131.441 20.9668 130.641 20.9668C129.841 20.9668 129.13 21.1335 128.508 21.4668C127.908 21.778 127.43 22.2224 127.074 22.8002C126.741 23.3557 126.574 24.0113 126.574 24.7668C126.574 25.5224 126.741 26.1891 127.074 26.7668C127.43 27.3224 127.908 27.7668 128.508 28.1002C129.13 28.3113 129.919 28.4668 130.874 28.4668ZM134.308 31.4668V26.8335L135.008 22.6668L134.308 18.5335V14.3335H138.274V31.4668H134.308Z" fill="#F4F5FF"/>
  <path d="M146.679 31.8668C145.168 31.8668 143.823 31.5224 142.646 30.8335C141.468 30.1224 140.546 29.1446 139.879 27.9002C139.212 26.6335 138.879 25.2002 138.879 23.6002C138.879 22.0002 139.212 20.578 139.879 19.3335C140.546 18.0668 141.468 17.0891 142.646 16.4002C143.823 15.6891 145.168 15.3335 146.679 15.3335C147.59 15.3335 148.412 15.478 149.146 15.7668C149.901 16.0557 150.534 16.478 151.046 17.0335C151.579 17.5668 151.968 18.2446 152.212 19.0668L151.479 23.0002C151.301 23.778 150.923 24.4557 150.346 25.0335C149.79 25.5891 149.112 26.0224 148.312 26.3335C147.534 26.6224 146.657 26.7668 145.679 26.7668C144.568 26.7668 143.59 26.5113 142.746 26.0002C141.923 25.4891 141.279 24.778 140.812 23.8668C140.368 22.9335 140.146 21.8557 140.146 20.6335C140.146 19.4113 140.368 18.3446 140.812 17.4335C141.257 16.5002 141.89 15.778 142.712 15.2668C143.557 14.7557 144.534 14.5002 145.646 14.5002C146.734 14.5002 147.701 14.7224 148.546 15.1668C149.412 15.6113 150.101 16.2446 150.612 17.0668C151.146 17.8668 151.479 18.8002 151.612 19.8668V7.2668H155.846V31.4668H151.979V27.3668L152.546 23.8668L151.912 20.3668V20.3002C151.801 21.3446 151.479 22.2668 150.946 23.0668C150.412 23.8446 149.712 24.4557 148.846 24.9002C148.001 25.3446 147.112 25.5668 146.179 25.5668C145.201 25.5668 144.334 25.4002 143.579 25.0668C142.846 24.7113 142.246 24.2113 141.779 23.5668C141.334 22.9002 141.112 22.1002 141.112 21.1668C141.112 20.2113 141.334 19.4113 141.779 18.7668C142.246 18.1002 142.857 17.6002 143.612 17.2668C144.368 16.9113 145.223 16.7335 146.179 16.7335C147.112 16.7335 148.001 16.9557 148.846 17.4002C149.712 17.8224 150.412 18.4335 150.946 19.2335C151.479 20.0113 151.801 20.9335 151.912 22.0002V21.9335L152.546 18.4335L151.979 14.3335H155.846V31.4668H151.946V27.3002L152.612 23.8335L151.979 20.3668C151.801 21.5224 151.423 22.5224 150.846 23.3668C150.268 24.1891 149.534 24.8224 148.646 25.2668C147.779 25.6891 146.79 25.9002 145.679 25.9002C144.723 25.9002 143.868 25.7335 143.112 25.4002C142.357 25.0668 141.746 24.5668 141.279 23.9002C140.834 23.2113 140.612 22.3779 140.612 21.4002C140.612 20.4446 140.834 19.6335 141.279 18.9668C141.723 18.3002 142.323 17.7891 143.079 17.4335C143.834 17.078 144.69 16.9002 145.646 16.9002C146.734 16.9002 147.701 17.1335 148.546 17.6002C149.39 18.0446 150.068 18.6779 150.579 19.5002C151.112 20.3002 151.446 21.2224 151.579 22.2668V22.2002L152.179 18.7002L151.612 15.3335H155.846V31.4668H151.946V27.3002L152.612 23.8335L151.979 20.3668C151.734 21.188 151.346 21.8668 150.812 22.4002C150.301 22.9335 149.668 23.3557 148.912 23.6668C148.157 23.978 147.323 24.1335 146.412 24.1335C145.279 24.1335 144.29 23.878 143.446 23.3668C142.601 22.8557 141.957 22.1446 141.512 21.2335C141.068 20.3224 140.846 19.2668 140.846 18.0668C140.846 16.8446 141.068 15.7891 141.512 14.9002C141.957 13.9891 142.601 13.278 143.446 12.7668C144.29 12.2557 145.279 12.0002 146.412 12.0002C147.39 12.0002 148.268 12.1668 149.046 12.5002C149.846 12.8335 150.523 13.3002 151.079 13.9002C151.634 14.5002 151.979 15.2113 152.112 16.0335L151.446 19.9002C151.201 20.7224 150.812 21.4335 150.279 22.0335C149.768 22.6113 149.134 23.0557 148.379 23.3668C147.646 23.6557 146.812 23.8002 145.879 23.8002C144.39 23.8002 143.068 23.4557 141.912 22.7668C140.757 22.078 139.846 21.1224 139.179 19.9002C138.534 18.6557 138.212 17.2557 138.212 15.7002C138.212 14.1002 138.534 12.6891 139.179 11.4668C139.846 10.2224 140.768 9.24458 141.946 8.53347C143.123 7.82236 144.468 7.4668 145.979 7.4668C147.379 7.4668 148.634 7.74458 149.746 8.30014C150.879 8.85569 151.801 9.64458 152.512 10.6668L149.746 13.2335C149.301 12.6113 148.757 12.1335 148.112 11.8002C147.468 11.4446 146.746 11.2668 145.946 11.2668C145.012 11.2668 144.19 11.478 143.479 11.9002C142.768 12.3224 142.212 12.9113 141.812 13.6668C141.434 14.4002 141.246 15.2668 141.246 16.2668C141.246 17.2668 141.434 18.1446 141.812 18.9002C142.212 19.6335 142.768 20.2113 143.479 20.6335C144.19 21.0557 145.012 21.2668 145.946 21.2668C146.746 21.2668 147.468 21.1002 148.112 20.7668C148.757 20.4113 149.301 19.9224 149.746 19.3002L152.512 21.8668C151.801 22.8668 150.879 23.6557 149.746 24.2335C148.634 24.7891 147.379 25.0668 145.979 25.0668H146.679Z" fill="#F4F5FF"/>
</svg>
